<svg width="21" height="21" viewBox="0 0 21 21" fill="none" xmlns="http://www.w3.org/2000/svg">
<path d="M0 3.28125C0 3.1072 0.0691404 2.94028 0.192211 2.81721C0.315282 2.69414 0.482202 2.625 0.65625 2.625H2.625C2.77138 2.62504 2.91355 2.67402 3.0289 2.76416C3.14424 2.85429 3.22614 2.9804 3.26156 3.12244L3.79313 5.25H19.0312C19.1309 5.25003 19.2293 5.27276 19.3189 5.31648C19.4085 5.3602 19.4869 5.42375 19.5483 5.50231C19.6096 5.58088 19.6523 5.67238 19.673 5.76989C19.6937 5.8674 19.6919 5.96834 19.6678 6.06506L17.6991 13.9401C17.6636 14.0821 17.5817 14.2082 17.4664 14.2983C17.3511 14.3885 17.2089 14.4375 17.0625 14.4375H5.25C5.10362 14.4375 4.96145 14.3885 4.8461 14.2983C4.73076 14.2082 4.64886 14.0821 4.61344 13.9401L2.11313 3.9375H0.65625C0.482202 3.9375 0.315282 3.86836 0.192211 3.74529C0.0691404 3.62222 0 3.4553 0 3.28125ZM4.12125 6.5625L5.76187 13.125H16.5506L18.1912 6.5625H4.12125ZM6.5625 17.0625C6.2144 17.0625 5.88056 17.2008 5.63442 17.4469C5.38828 17.6931 5.25 18.0269 5.25 18.375C5.25 18.7231 5.38828 19.0569 5.63442 19.3031C5.88056 19.5492 6.2144 19.6875 6.5625 19.6875C6.9106 19.6875 7.24444 19.5492 7.49058 19.3031C7.73672 19.0569 7.875 18.7231 7.875 18.375C7.875 18.0269 7.73672 17.6931 7.49058 17.4469C7.24444 17.2008 6.9106 17.0625 6.5625 17.0625ZM3.9375 18.375C3.9375 17.6788 4.21406 17.0111 4.70634 16.5188C5.19863 16.0266 5.86631 15.75 6.5625 15.75C7.25869 15.75 7.92637 16.0266 8.41866 16.5188C8.91094 17.0111 9.1875 17.6788 9.1875 18.375C9.1875 19.0712 8.91094 19.7389 8.41866 20.2312C7.92637 20.7234 7.25869 21 6.5625 21C5.86631 21 5.19863 20.7234 4.70634 20.2312C4.21406 19.7389 3.9375 19.0712 3.9375 18.375ZM15.75 17.0625C15.4019 17.0625 15.0681 17.2008 14.8219 17.4469C14.5758 17.6931 14.4375 18.0269 14.4375 18.375C14.4375 18.7231 14.5758 19.0569 14.8219 19.3031C15.0681 19.5492 15.4019 19.6875 15.75 19.6875C16.0981 19.6875 16.4319 19.5492 16.6781 19.3031C16.9242 19.0569 17.0625 18.7231 17.0625 18.375C17.0625 18.0269 16.9242 17.6931 16.6781 17.4469C16.4319 17.2008 16.0981 17.0625 15.75 17.0625ZM13.125 18.375C13.125 17.6788 13.4016 17.0111 13.8938 16.5188C14.3861 16.0266 15.0538 15.75 15.75 15.75C16.4462 15.75 17.1139 16.0266 17.6062 16.5188C18.0984 17.0111 18.375 17.6788 18.375 18.375C18.375 19.0712 18.0984 19.7389 17.6062 20.2312C17.1139 20.7234 16.4462 21 15.75 21C15.0538 21 14.3861 20.7234 13.8938 20.2312C13.4016 19.7389 13.125 19.0712 13.125 18.375Z" fill="#0D7FA7"/>
</svg>
