<svg width="24" height="24" viewBox="0 0 24 24" fill="none" xmlns="http://www.w3.org/2000/svg">
<g clip-path="url(#clip0_1_438)">
<path d="M12 -0.0253906C5.36926 -0.0253906 -0.0262451 5.36861 -0.0262451 12.0001C-0.0262451 18.6316 5.36926 24.0256 12 24.0256C18.6308 24.0256 24.0263 18.6316 24.0263 12.0001C24.0263 5.36861 18.6308 -0.0253906 12 -0.0253906ZM12 23.2246C5.811 23.2246 0.776255 18.1891 0.776255 12.0001C0.776255 5.81111 5.811 0.775609 12 0.775609C18.189 0.775609 23.2238 5.81111 23.2238 12.0001C23.2238 18.1891 18.189 23.2246 12 23.2246Z" fill="#0D7FA7"/>
<path d="M18.5955 8.28461C18.6787 8.13062 18.7473 7.96916 18.8003 7.80236C18.8248 7.72499 18.8253 7.64199 18.8017 7.56433C18.7781 7.48667 18.7315 7.418 18.668 7.36738C18.6046 7.31677 18.5272 7.28658 18.4463 7.28082C18.3653 7.27506 18.2845 7.29399 18.2145 7.33511C17.8302 7.56341 17.4142 7.73351 16.98 7.83986C16.453 7.36419 15.7685 7.10049 15.0585 7.09961C14.6728 7.09991 14.2911 7.17808 13.9364 7.32946C13.5816 7.48083 13.261 7.70228 12.9939 7.98053C12.7268 8.25878 12.5186 8.5881 12.3819 8.94875C12.2451 9.3094 12.1826 9.69396 12.198 10.0794C10.5113 9.86702 8.97102 9.0135 7.89677 7.69586C7.85561 7.64594 7.80301 7.60669 7.74344 7.58145C7.68386 7.55621 7.61908 7.54572 7.55459 7.55088C7.49009 7.55603 7.4278 7.57668 7.37299 7.61106C7.31818 7.64544 7.27248 7.69254 7.23977 7.74836C6.99379 8.17055 6.86009 8.64874 6.85142 9.13729C6.84276 9.62584 6.95941 10.1085 7.19027 10.5391C7.13365 10.5487 7.07926 10.5685 7.02977 10.5976C6.96913 10.6363 6.9192 10.6896 6.8846 10.7526C6.84999 10.8157 6.83183 10.8864 6.83177 10.9584C6.83177 11.8096 7.21052 12.5911 7.82102 13.1221L7.79477 13.1484C7.74868 13.2005 7.71697 13.2637 7.70277 13.3319C7.68856 13.4 7.69235 13.4706 7.71377 13.5369C7.84107 13.934 8.05363 14.2985 8.33657 14.6049C8.61951 14.9113 8.966 15.1522 9.35177 15.3106C8.55946 15.6971 7.67279 15.8478 6.79727 15.7449C6.70727 15.7357 6.61678 15.7566 6.53996 15.8044C6.46314 15.8522 6.40434 15.9241 6.37277 16.0089C6.34245 16.0943 6.34188 16.1874 6.37115 16.2732C6.40042 16.3589 6.45782 16.4323 6.53402 16.4814C7.72428 17.2453 9.10896 17.6511 10.5233 17.6506C15.1583 17.6506 17.9288 13.8856 17.9288 10.2459L17.928 10.1229C18.3772 9.77217 18.7674 9.35186 19.0838 8.87786C19.1317 8.8062 19.1552 8.72102 19.151 8.63493C19.1467 8.54884 19.1148 8.46642 19.06 8.39986C19.0052 8.33331 18.9305 8.28616 18.8468 8.2654C18.7632 8.24465 18.6751 8.25138 18.5955 8.28461ZM17.2868 9.60086C17.2323 9.63999 17.1886 9.69214 17.1595 9.75254C17.1304 9.81294 17.1169 9.87966 17.1203 9.94661C17.1248 10.0456 17.127 10.1461 17.127 10.2451C17.127 13.4911 14.6573 16.8489 10.524 16.8489C9.78685 16.8492 9.05488 16.7255 8.35877 16.4829C9.19247 16.3231 9.97564 15.9656 10.6425 15.4404C10.7074 15.3892 10.755 15.3192 10.7786 15.24C10.8022 15.1608 10.8008 15.0762 10.7745 14.9978C10.7483 14.9194 10.6984 14.851 10.6319 14.8021C10.5653 14.7531 10.4852 14.7258 10.4025 14.7241C10.0791 14.7179 9.76174 14.6358 9.47591 14.4845C9.19008 14.3331 8.94383 14.1166 8.75702 13.8526C8.94677 13.8399 9.13277 13.8084 9.31352 13.7596C9.401 13.7362 9.47796 13.6838 9.53185 13.611C9.58574 13.5383 9.61337 13.4494 9.61023 13.3589C9.6071 13.2684 9.57339 13.1816 9.5146 13.1127C9.45581 13.0438 9.37541 12.9969 9.28652 12.9796C8.92129 12.9053 8.58312 12.7331 8.30821 12.4815C8.03329 12.2298 7.83197 11.9081 7.72577 11.5509C7.92527 11.6011 8.13002 11.6304 8.33477 11.6371C8.51102 11.6364 8.67452 11.5284 8.72927 11.3589C8.78402 11.1894 8.71952 11.0026 8.57027 10.9036C8.21737 10.6685 7.94566 10.3302 7.79223 9.93485C7.6388 9.53953 7.61114 9.10649 7.71302 8.69486C9.01579 10.0316 10.7749 10.8276 12.639 10.9239C12.771 10.9246 12.8865 10.8774 12.9668 10.7806C13.047 10.6839 13.0778 10.5556 13.0493 10.4326C12.9467 9.99086 12.9926 9.52762 13.1798 9.11457C13.367 8.70152 13.6852 8.3617 14.085 8.14769C14.4849 7.93368 14.9441 7.85742 15.3916 7.93071C15.8392 8.004 16.2501 8.22275 16.5608 8.55311C16.6073 8.60279 16.6658 8.6398 16.7306 8.66067C16.7954 8.68153 16.8645 8.68555 16.9313 8.67236C17.055 8.64761 17.1773 8.61911 17.298 8.58611C17.2436 8.62686 17.187 8.66466 17.1285 8.69936C17.0507 8.747 16.9915 8.81971 16.9606 8.90552C16.9297 8.99133 16.9289 9.0851 16.9585 9.1714C16.988 9.25769 17.046 9.33136 17.123 9.38025C17.2 9.42914 17.2914 9.45034 17.382 9.44036L17.5185 9.42311C17.4434 9.48503 17.3661 9.54431 17.2868 9.60086Z" fill="#0D7FA7"/>
</g>
<defs>
<clipPath id="clip0_1_438">
<rect width="24" height="24" fill="white"/>
</clipPath>
</defs>
</svg>
